<svg width="51" height="51" viewBox="0 0 51 51" fill="none" xmlns="http://www.w3.org/2000/svg">
<rect width="51" height="51" rx="10" fill="#E8EFFF"/>
<path fill-rule="evenodd" clip-rule="evenodd" d="M20.6925 18.8822C13.8452 18.7603 14.4206 18.4894 14.4486 25.9924L36.5188 25.9491C36.6648 17.9063 37.1603 19.1983 30.2697 18.8383C30.2303 15.51 29.9129 15.5634 26.8373 15.5561C20.0278 15.54 20.8584 14.9957 20.6925 18.8822Z" fill="#A1B6E0"/>
<path fill-rule="evenodd" clip-rule="evenodd" d="M36.4558 27.2969L28.3404 27.2209C27.9438 30.3491 28.8157 30.143 25.4436 30.1363C22.1356 30.1296 22.9037 30.276 22.6618 27.2178L14.5233 27.2204C14.3609 28.7321 14.4267 30.3157 14.4241 31.8688C14.4209 33.793 14.3534 35.063 15.9871 35.4585L34.917 35.4783C36.622 35.0917 36.5282 33.8305 36.536 32.1721C36.5432 30.653 36.6118 28.7712 36.4558 27.2969Z" fill="#A1B6E0"/>
<path fill-rule="evenodd" clip-rule="evenodd" d="M22.3428 18.8836L27.939 18.8495C28.563 18.7441 28.3484 18.7507 28.6137 18.632L28.6417 17.456C27.0835 16.8557 24.2863 17.269 22.4189 17.2503L22.3428 18.8836Z" fill="#A1B6E0"/>
<path fill-rule="evenodd" clip-rule="evenodd" d="M23.9548 28.7088L27.0014 28.8596L27.0534 27.2344L23.9375 27.262L23.9548 28.7088Z" fill="#A1B6E0"/>
</svg>
