<svg width="25" height="25" viewBox="0 0 25 25" fill="none" xmlns="http://www.w3.org/2000/svg">
<path d="M16.1831 3.73322L14.2904 5.6259L19.3741 10.7096L21.2668 8.81687C22.2444 7.83925 22.2444 6.25549 21.2668 5.27787L19.726 3.73322C18.7484 2.75559 17.1647 2.75559 16.187 3.73322H16.1831ZM13.4067 6.50968L4.29128 15.629C3.88459 16.0357 3.58739 16.5401 3.42315 17.0915L2.03883 21.7958C1.94107 22.1282 2.03101 22.4841 2.27346 22.7265C2.51592 22.969 2.87177 23.0589 3.20025 22.9651L7.90459 21.5808C8.45597 21.4165 8.96043 21.1193 9.36712 20.7126L18.4903 11.5933L13.4067 6.50968Z" fill="#A6B1C5"/>
</svg>
