<svg width="125" height="129" viewBox="0 0 125 129" fill="none" xmlns="http://www.w3.org/2000/svg">
<g clip-path="url(#clip0_329_3054)">
<rect width="125" height="125" rx="62.5" fill="#E3ECFF"/>
<ellipse cx="62.5008" cy="112.499" rx="44.3182" ry="20.4545" fill="#A1B6E0"/>
<circle cx="62.5004" cy="59.0902" r="23.8636" fill="#A1B6E0"/>
</g>
<rect x="3.40909" y="3.40909" width="118.182" height="118.182" rx="59.0909" stroke="#EFF4FF" stroke-width="6.81818"/>
<rect x="50.5" y="105" width="24" height="24" rx="7.82609" fill="#E8EFFF"/>
<g clip-path="url(#clip1_329_3054)">
<path d="M60.1033 112.713L59.8702 113.412H58.1955C57.4042 113.412 56.7607 114.056 56.7607 114.847V120.586C56.7607 121.378 57.4042 122.021 58.1955 122.021H66.8042C67.5956 122.021 68.239 121.378 68.239 120.586V114.847C68.239 114.056 67.5956 113.412 66.8042 113.412H65.1296L64.8964 112.713C64.7507 112.273 64.3404 111.978 63.8764 111.978H61.1234C60.6593 111.978 60.2491 112.273 60.1033 112.713ZM62.4999 115.564C63.0707 115.564 63.6181 115.791 64.0217 116.195C64.4253 116.598 64.652 117.146 64.652 117.717C64.652 118.287 64.4253 118.835 64.0217 119.238C63.6181 119.642 63.0707 119.869 62.4999 119.869C61.9291 119.869 61.3817 119.642 60.9781 119.238C60.5744 118.835 60.3477 118.287 60.3477 117.717C60.3477 117.146 60.5744 116.598 60.9781 116.195C61.3817 115.791 61.9291 115.564 62.4999 115.564Z" fill="#A1B6E0"/>
</g>
<defs>
<clipPath id="clip0_329_3054">
<rect width="125" height="125" rx="62.5" fill="white"/>
</clipPath>
<clipPath id="clip1_329_3054">
<rect width="11.4783" height="11.4783" fill="white" transform="translate(56.7607 111.261)"/>
</clipPath>
</defs>
</svg>
